<?xml version="1.0" encoding="utf-8" ?>
<svg xmlns="http://www.w3.org/2000/svg" xmlns:xlink="http://www.w3.org/1999/xlink" width="1024" height="1024" viewBox="0 0 1024 1024">
<path fill="#CDA14A" d="M304.776 431.153C323.468 430.632 342.387 431.537 361.099 431.073C362.275 431.044 363.461 431.423 364.379 432.15C364.064 435.684 354.216 431.622 349.45 436.865C344.789 441.992 345.477 450.415 345.416 457.012C359.295 458.05 369.294 460.698 381.142 468.691C400.827 481.973 406.833 509.895 393.102 529.555C382.839 544.25 362.798 551.678 345.406 554.48C345.5 567.723 344.985 578.079 362.023 576.84C363.511 576.732 363.899 577.063 364.782 578.04L364.683 578.606C363.03 580.218 364.001 579.752 361.625 579.966C349.452 579.611 337.274 579.456 325.096 579.501C321.24 579.504 307.325 580.51 305.071 578.555C305.695 575.371 319.121 577.342 321.535 573.716C324.5 569.261 324.162 560.626 324.135 555.576C307.985 554.167 295.274 550.9 281.773 541.047C263.464 527.685 260.918 495.814 274.894 478.586C287.546 462.99 305.376 459.139 324.507 457.011C324.586 449.806 325.177 438.527 317.502 434.953C313.642 433.155 309.435 434.727 305.614 433.304C304.857 433.022 304.94 431.967 304.776 431.153Z"/>
<path fill="white" d="M322.8 461.189C323.193 461.109 323.636 461.239 324.081 461.308C325.811 465.953 324.629 541.689 324.465 551.494C313.887 550.878 307.433 549.638 299.199 542.794C284.3 528.095 284.071 490.863 296.013 473.987C302.547 464.754 312.259 462.767 322.8 461.189Z"/>
<path fill="white" d="M345.042 460.471C374.803 464.328 381.596 487.76 379.007 514.796C378.089 524.385 375.519 532.904 369.071 540.206C362.048 547.115 354.551 549.4 345.082 550.581L345.042 460.471Z"/>
<path fill="#CDA14A" d="M819.179 475.593C827.662 475.071 834.518 476.271 841.917 480.653C877.852 501.938 871.149 566.466 829.112 575.945C773.939 581.112 764.969 486.485 819.179 475.593Z"/>
<path fill="white" d="M820.243 478.57C836.07 477.613 842.282 492.766 845.485 505.744C849.718 522.895 849.642 567.99 827.132 572.909C814.287 573.764 807.809 561.007 804.41 550.513C798.239 531.457 797.889 508.535 806.746 490.229C809.727 484.068 813.788 480.611 820.243 478.57Z"/>
<path fill="#CDA14A" d="M445.845 475.657C499.477 473.308 507.149 563.59 453.427 576.073C396.382 579.019 391.907 483.574 445.845 475.657Z"/>
<path fill="white" d="M444.597 478.624C450.303 478.101 453.985 478.816 458.493 482.633C477.973 499.128 478.922 564.288 452.742 572.991C440.456 573.454 435.462 565.502 431.098 555.381C422.539 535.533 419.767 488.223 444.597 478.624Z"/>
<path fill="#CDA14A" d="M598.036 475.618C606.41 475.132 614.707 477.441 621.626 482.183C655.549 505.044 647.438 568.371 605.114 575.971C549.496 578.263 544.464 484.694 598.036 475.618Z"/>
<path fill="white" d="M597.204 478.546C611.04 477.394 616.715 487.139 620.9 498.763C627.615 517.417 629.258 565.04 605.689 572.948C573.126 575.784 566.514 489.295 597.204 478.546Z"/>
<path fill="#CDA14A" d="M899.12 572.449L899.963 572.459C902.319 572.498 903.254 572.326 905.249 573.552L905.346 574.074C901.525 574.793 867.591 574.972 863.809 574.344L863.349 573.606C867.178 572.452 872.407 571.337 874.337 567.397C876.419 563.147 875.846 501.337 875.25 492.317C875.075 489.674 874.731 486.873 873.624 484.447C872.753 482.536 871.285 480.818 869.27 480.094C867.236 479.363 864.714 479.349 862.998 477.98L863.189 477.297C867.021 476.833 902.592 476.644 905.131 477.535C903.69 479.025 898.885 478.509 895.981 481.726C890.453 487.85 892.405 511.937 892.471 520.468L927.353 520.498C927.276 512.043 928.805 487.676 923.44 481.519C921.058 478.784 917.03 479.664 915.243 478.164C917.631 476.102 956.058 476.792 957.35 477.846L957.002 478.49C953.05 479.564 948.28 479.935 946.059 483.893C943.14 489.098 943.789 550.003 944.446 559.656C944.611 562.086 944.977 564.574 945.721 566.899C946.335 568.815 947.366 570.403 949.123 571.443C951.299 572.73 955.308 571.677 956.808 573.601L956.674 574.785C947.138 575.207 933.509 574.627 923.591 574.66C921.706 574.794 916.619 575.286 915.295 574.328C913.804 573.25 917.844 573.031 917.914 573.029C921.115 572.254 923.569 571.602 925.282 568.582C928.566 562.794 927.199 533.054 927.194 524.321C916.406 523.761 903.499 524.059 892.529 524.053L892.441 547.671C892.418 556.36 890.707 567.454 899.12 572.449Z"/>
<path fill="#CF9D4E" d="M923.591 574.66C921.706 574.794 916.619 575.286 915.295 574.328C913.804 573.25 917.844 573.031 917.914 573.029C920.465 574.136 921.001 574.212 923.591 574.66Z"/>
<path fill="#CDA14A" d="M237.925 503.353C239.097 503.276 239.015 503.257 240.058 503.797C240.986 505.631 240.734 510.563 240.743 512.768C240.842 538.297 226.975 566.832 205.833 581.492C202.391 579.93 197.225 576.698 193.813 574.744L172.816 562.833C164.91 558.349 157.182 553.56 149.648 548.476C170.216 545.598 177.183 538.302 194.402 528.422C208.421 520.378 223.746 510.858 237.925 503.353Z"/>
<path fill="#CDA14A" d="M118.015 522.817C118.514 523.352 118.342 523.032 118.836 523.978C120.937 528 126.872 537.332 130.365 540.239C145.617 552.934 165.858 562.642 182.737 573.065C188.779 576.796 195.715 580.159 200.467 585.009C197.325 588.216 194.706 589.52 190.795 591.507C176.563 598.33 161.783 601.135 146.015 600.043C139.972 599.624 122.15 597.103 118.63 591.882C116.767 589.12 117.414 529.752 118.015 522.817Z"/>
<path fill="#CDA14A" d="M184.747 496.464C181.7 490.845 175.069 481.62 169.725 477.906C155.215 467.821 138.933 459.06 123.73 450.021C119.284 447.378 110.816 442.657 107.63 439.201L107.689 437.944C109.132 435.273 112.297 433.265 115.004 431.948C138.376 420.579 161.073 420.885 185.121 428.23C185.467 431.666 185.57 435.57 185.468 439.024C184.952 456.58 186.508 474.74 185.954 492.214C186.01 493.36 186.347 497.202 185.831 498.047L185.734 498.098C185.248 497.881 184.924 496.905 184.747 496.464Z"/>
<path fill="#CF9D4E" d="M184.747 496.464C185.773 494.837 185.519 494.133 185.954 492.214C186.01 493.36 186.347 497.202 185.831 498.047L185.734 498.098C185.248 497.881 184.924 496.905 184.747 496.464Z"/>
<path fill="#CDA14A" d="M190.47 432.365L191.121 432.625C212.836 441.072 237.353 469.734 238.389 494.61C238.52 497.779 222.393 506.785 218.873 508.93C209.122 515.076 197.65 521.235 187.568 527.379C193.504 497.133 187.975 463.184 190.47 432.365Z"/>
<path fill="#CDA14A" d="M67.3085 516.866C63.8116 492.412 74.4218 466.106 92.0223 449.185C94.6122 446.695 97.7638 443.954 101.078 442.548C106.095 444.75 113.65 449.446 118.483 452.284C129.687 458.867 140.685 465.869 151.984 472.328L153.788 473.648L153.825 474.295C152.08 474.856 149.132 474.545 147.189 474.464C133.584 475.639 124.214 483.493 112.748 490.279L67.3085 516.866Z"/>
<path fill="#CDA14A" d="M116.473 493.019C116.897 493.894 112.925 508.344 112.794 511.463C111.72 537.044 112.913 562.776 112.263 588.353C102.453 584.773 94.6013 577.639 87.636 570.057C76.3055 557.452 68.5644 539.375 67.7905 522.389C69.7214 520.92 72.2273 519.474 74.3472 518.252C88.5459 510.063 102.465 501.517 116.473 493.019Z"/>
<path fill="#CDA14A" d="M746.282 476.707C748.638 476.551 751.997 476.812 754.294 477.272C761.852 478.727 768.535 483.094 772.902 489.432C777.131 495.672 778.96 502.762 772.409 508.181C769.89 510.265 765.582 510.358 762.612 509.503C757.43 508.009 756.501 501.692 755.961 497.144C755.38 492.885 755.1 488.348 753.079 484.482C749.544 477.733 740.752 479.196 735.178 482.262C727.9 486.263 723.116 494.131 720.738 501.846C716.698 515.242 718.047 529.685 724.497 542.101C733.416 558.915 749.143 564.598 766.037 555.538C773.045 550.901 775.416 545.462 779.599 538.337L780.752 538.153C783.595 540.512 772.355 559.837 769.709 562.888C762.899 570.739 756.328 574.538 746.128 575.582C721.552 578.098 707.817 556.488 706.099 534.584C703.183 507.635 716.404 478.978 746.282 476.707Z"/>
<path fill="#CDA14A" d="M490.008 476.675C513.883 477.092 538.031 476.89 561.98 477.141C561.556 482.692 560.368 508.412 559.225 511.249L558.655 511.146C553.043 495.478 559.25 480.467 534.527 479.905L534.447 533.602C534.422 542.866 534.06 552.083 534.834 561.321C535.875 573.745 543.395 569.887 548.825 573.833L548.766 574.486C547.843 574.793 512.411 574.709 509.765 574.479C508.676 574.557 502.678 575.443 502.524 573.886C503.106 573.065 504.05 573.039 504.984 573.044C508.461 572.087 513.374 570.949 514.482 567.069C517.959 554.89 516.871 538.408 516.861 525.878C516.848 510.448 516.943 495.024 516.454 479.873C487.466 479.975 497.591 504.825 491.779 510.905C490.37 508.241 490.161 481.68 490.008 476.675Z"/>
<path fill="#CF9D4E" d="M509.765 574.479C508.676 574.557 502.678 575.443 502.524 573.886C503.106 573.065 504.05 573.039 504.984 573.044C506.507 573.912 507.94 573.809 509.765 574.479Z"/>
<path fill="#CDA14A" d="M650.418 517.436L699.101 517.36C698.015 520.052 697.102 522.008 695.91 524.644C679.932 524.908 663.952 525.006 647.972 524.936C648.727 522.332 649.71 519.974 650.418 517.436Z"/>
</svg>
