<?xml version="1.0" encoding="utf-8" ?><svg xmlns="http://www.w3.org/2000/svg" xmlns:xlink="http://www.w3.org/1999/xlink" width="1024" height="1024" viewBox="0 0 1024 1024"><path fill="white" d="M0 0L1024 0L1024 1024L0 1024L0 0Z"/><path fill="#D2AD29" d="M501.55 296.213C554.511 293.45 606.472 311.377 646.462 346.208C690.649 384.294 717.786 438.456 721.84 496.65C726.259 555.391 706.908 613.446 668.129 657.789C630.762 700.832 580.526 724.374 524.017 728.42C506.853 728.755 494.021 728.433 477.001 725.661C440.737 719.755 403.362 701.686 376.015 677.259C331.801 638.409 305.119 583.374 302.004 524.599C298.78 466.312 318.99 409.156 358.135 365.851C395.456 324.328 445.667 299.246 501.55 296.213Z"/><path fill="white" d="M502.52 311.713C502.614 311.703 502.707 311.692 502.8 311.682C565.669 307.912 625.449 336.78 663.766 385.907C690.725 420.471 703.227 453.453 706.788 495.824C711.441 550.199 694.318 604.197 659.181 645.954C633.789 675.73 594.565 700.075 556.501 709.029C544.946 711.747 534.368 713.017 522.575 713.931C489.052 714.809 462.778 710.121 432.141 696.441C365.02 666.471 322.173 600.27 316.739 527.482C312.875 473.059 330.918 419.349 366.855 378.296C391.375 350.059 423.806 328.953 459.813 318.275C472.02 314.654 489.89 312.598 502.52 311.713Z"/><path fill="#D2AD29" d="M473.347 584.018C483.59 584.031 495.462 584.96 505.858 585.381C540.507 586.945 575.14 588.86 609.75 591.126C624.247 591.831 638.738 592.673 653.22 593.65C658.739 594.013 669.945 594.446 674.858 595.815C676.096 597.368 675.818 596.529 675.941 598.335C674.448 601.853 671.371 604.153 668.741 606.83C654.764 621.057 638.003 631.455 621.498 642.533C603.964 653.847 586.175 664.762 568.145 675.268C554.835 683.126 541.075 691.508 527.136 698.07C522.309 690.823 516.545 678.064 512.655 669.908L492.44 627.359C488.765 619.502 485.006 611.683 481.167 603.904C478.966 599.436 472.675 588.427 473.347 584.018Z"/><path fill="#D2AD29" d="M494.654 326.952C497.638 328.009 513.453 361.469 515.788 366.104L552.153 438.544C536.394 438.479 521.954 437.588 506.306 436.86C475.559 435.473 444.829 433.718 414.125 431.593C399.503 431.033 384.701 429.671 370.09 428.814C365.641 428.553 352.07 428.413 348.809 425.932C348.393 424.612 348.184 424.218 348.677 422.861C354.481 406.882 473.044 334.811 494.654 326.952Z"/><path fill="#D2AD29" d="M506.13 321.383C526.98 321.995 600.51 367.622 619.725 379.353C631.583 386.592 647.903 395.508 659.806 403.187C656.244 412.021 648.731 423.626 643.553 431.767C635.637 444.127 627.638 456.433 619.555 468.684C610.781 482.461 601.424 495.479 592.724 509.034C590.95 505.918 589.413 502.609 587.704 499.453C578.012 480.826 568.689 461.908 559.668 442.93C541.048 403.758 523.341 364.035 505.477 324.518C505.223 323.957 505.919 322 506.13 321.383Z"/><path fill="#D2AD29" d="M350.631 436.617C372.246 436.797 395.959 438.368 417.677 439.19C434.735 439.835 453.245 440.131 470.081 441.45C460.156 465.959 442.917 487.535 428.958 509.763C420.343 523.48 411.066 537.012 401.707 550.236C395.493 559.269 360.795 610.631 355.516 614.702C347.963 613.532 348.352 560.66 348.295 552.798L348.161 488.69L348.02 459.773C347.932 453.414 347.315 446.221 348.062 439.942C348.297 437.96 349.194 437.6 350.631 436.617Z"/><path fill="#D2AD29" d="M430.901 514.839C431.053 515.003 431.206 515.167 431.358 515.331C447.921 546.356 466.895 590.272 481.153 621.22L506.539 675.469C509.103 680.961 517.909 696.939 517.696 702.008L516.725 702.767C508.647 704.478 480.328 688.638 471.685 684.25C447.735 672.052 424.426 658.206 401.552 644.087C395.419 640.301 367.885 625.731 364.935 621.058C365.379 612.381 421.318 530.244 430.901 514.839Z"/><path fill="#D2AD29" d="M668.29 409.261C669.564 409.807 669.933 410.306 670.419 411.703C677.055 430.767 676.575 452.056 676.584 471.929L676.482 515.503L676.135 554.313C676.117 561.529 676.941 579.149 674.6 585.087C673.535 586.014 670.522 586.186 669.061 586.136C634.954 584.988 600.27 584.778 566.222 583.048L553.924 582.659C561.721 564.396 573.797 546.456 584.778 529.985C608.141 494.944 633.537 461.251 656.869 426.17C660.078 421.344 664.469 413.228 668.29 409.261Z"/></svg>